<svg width="193" height="193" viewBox="0 0 193 193" fill="none" xmlns="http://www.w3.org/2000/svg">
  <path
    d="M114.446 79.7971C112.085 78.9116 109.453 80.108 108.567 82.4693C107.682 84.8306 108.878 87.4626 111.24 88.3481L114.446 79.7971ZM118.931 77.9842L123.444 78.6786L118.931 77.9842ZM161.55 111.774L157.959 114.596L158.065 114.73L158.18 114.856L161.55 111.774ZM164.594 139.781L167.666 143.159L164.594 139.781ZM125.628 166.874L124.307 162.503L125.628 166.874ZM37.6521 148L40.0453 144.111L37.6521 148ZM17.2563 84.0726L19.6716 87.9477L17.2563 84.0726ZM42.5228 93.8139L39.8766 90.0926L39.8766 90.0926L42.5228 93.8139ZM80.5749 102.338C83.0967 102.338 85.1411 100.293 85.1411 97.7713C85.1411 95.2495 83.0967 93.2051 80.5749 93.2051V102.338ZM100.743 83.7641L96.1829 83.9982L100.743 83.7641ZM99.2396 81.6504L97.5103 85.8765L99.2396 81.6504ZM32.6424 120.04L36.0333 116.981L32.6424 120.04ZM64.9295 144.622L67.1067 140.609L67.1067 140.609L64.9295 144.622ZM60.9057 145.782L57.213 143.096L60.9057 145.782ZM104.623 155.518L108.61 153.292L104.623 155.518ZM102.741 154.238L103.293 149.705L102.741 154.238ZM138.039 144.659L135.116 141.151L138.039 144.659ZM137.278 147.626L141.629 146.241L137.278 147.626ZM146.04 141.575L148.265 137.587L146.04 141.575ZM141.721 141.592L144.644 145.099L141.721 141.592ZM153.61 84.8226L152.806 89.3176L153.61 84.8226ZM150.591 87.1735L146.034 87.4696L150.591 87.1735ZM111.24 88.3481C113.209 89.0867 116.074 89.1753 118.682 87.4181C121.309 85.648 122.845 82.577 123.444 78.6786L114.418 77.2899C114.044 79.7234 113.347 80.0009 113.579 79.8442C113.793 79.7005 114.1 79.6673 114.446 79.7971L111.24 88.3481ZM123.444 78.6786C123.643 77.3873 123.721 75.5723 123.802 73.8201C123.889 71.9405 123.986 69.8017 124.19 67.489C124.6 62.8256 125.42 57.7549 127.249 53.3418C129.057 48.9799 131.728 45.5375 135.737 43.5788C139.77 41.608 145.879 40.7863 155.262 43.1434L157.487 34.2861C146.765 31.5926 138.294 32.1649 131.727 35.3734C125.136 38.594 121.187 44.1163 118.813 49.845C116.459 55.5226 115.534 61.6687 115.092 66.6886C114.87 69.2176 114.765 71.5372 114.679 73.4002C114.588 75.3906 114.524 76.6024 114.418 77.2899L123.444 78.6786ZM155.262 43.1434C164.129 45.3709 169.287 49.2329 172.031 53.2335C174.769 57.2242 175.414 61.7934 174.466 66.1203C172.505 75.0699 164.122 82.0628 154.413 80.3276L152.806 89.3176C168.241 92.0763 180.582 80.874 183.387 68.0755C184.822 61.5284 183.862 54.3354 179.562 48.0677C175.27 41.8099 167.961 36.9173 157.487 34.2861L155.262 43.1434ZM146.034 87.4696C146.761 98.6586 153.812 109.317 157.959 114.596L165.14 108.953C161.217 103.96 155.686 95.1601 155.148 86.8775L146.034 87.4696ZM158.18 114.856C162.841 119.954 164.84 124.329 165.167 127.74C165.473 130.921 164.386 133.797 161.521 136.403L167.666 143.159C172.439 138.818 174.866 133.199 174.258 126.867C173.672 120.765 170.33 114.61 164.919 108.693L158.18 114.856ZM161.521 136.403C157.423 140.13 151.326 139.295 148.265 137.587L143.815 145.563C148.866 148.381 159.61 150.486 167.666 143.159L161.521 136.403ZM138.797 138.084L135.116 141.151L140.962 148.167L144.644 145.099L138.797 138.084ZM132.927 149.011C133.642 151.256 133.653 153.959 132.543 156.328C131.495 158.568 129.207 161.022 124.307 162.503L126.95 171.245C133.974 169.121 138.516 165.107 140.814 160.202C143.05 155.427 142.925 150.308 141.629 146.241L132.927 149.011ZM124.307 162.503C120.332 163.705 117.357 162.757 114.875 160.939C112.198 158.978 110.107 155.972 108.61 153.292L100.637 157.745C102.37 160.848 105.233 165.197 109.478 168.306C113.917 171.559 119.83 173.397 126.95 171.245L124.307 162.503ZM103.293 149.705C87.4632 147.779 77.8476 146.435 67.1067 140.609L62.7523 148.636C75.2176 155.398 86.4907 156.861 102.19 158.771L103.293 149.705ZM57.213 143.096C55.022 146.108 48.8596 149.535 40.0453 144.111L35.259 151.889C48.0264 159.746 59.526 155.441 64.5984 148.468L57.213 143.096ZM40.0453 144.111C35.5807 141.364 34.2667 138.1 34.1246 135.058C33.9681 131.707 35.2471 128.171 36.8176 125.534L28.9714 120.861C26.8387 124.441 24.7348 129.761 25.0021 135.484C25.2838 141.516 28.2001 147.545 35.259 151.889L40.0453 144.111ZM36.0333 116.981C31.4964 111.951 25.742 104.624 22.2168 98.0562C20.4277 94.723 19.4316 91.9808 19.2196 90.0332C19.025 88.2457 19.5091 88.049 19.6716 87.9477L14.841 80.1974C10.6537 82.8072 9.7216 87.1708 10.1407 91.0214C10.5424 94.7119 12.1898 98.6857 14.1701 102.375C18.1839 109.853 24.4723 117.798 29.2515 123.098L36.0333 116.981ZM19.6716 87.9477C20.2323 87.5983 20.3378 87.7063 20.1462 87.6878C20.0081 87.6745 20.1225 87.6266 20.5665 87.9777C21.0352 88.3483 21.6103 88.9551 22.3648 89.899C23.169 90.9049 23.8125 91.8136 24.7915 93.0909C26.4414 95.2435 28.9103 98.3074 32.42 99.7631C36.5039 101.457 40.8416 100.613 45.1691 97.5352L39.8766 90.0926C37.3546 91.886 36.3304 91.4981 35.9189 91.3275C34.9331 90.9186 33.7732 89.7968 32.0398 87.5353C31.3272 86.6056 30.3405 85.2502 29.4982 84.1966C28.6064 83.0809 27.5189 81.8326 26.2311 80.8143C24.9187 79.7765 23.1829 78.8059 21.0231 78.5975C18.8099 78.384 16.7224 79.0248 14.841 80.1974L19.6716 87.9477ZM96.1829 83.9982C96.6793 93.6678 97.3668 105.5 96.2836 114.923C95.7382 119.668 94.7911 123.288 93.4838 125.599C92.3003 127.691 91.1398 128.269 89.734 128.269V137.401C95.281 137.401 99.0953 134.227 101.433 130.095C103.646 126.183 104.765 121.108 105.356 115.966C106.546 105.618 105.785 92.9142 105.303 83.53L96.1829 83.9982ZM89.734 128.269C85.8832 128.269 83.7418 127.376 82.4675 126.359C81.1841 125.335 80.2182 123.738 79.5866 121.244C78.943 118.703 78.7333 115.57 78.7419 111.89C78.7509 108.083 78.9689 104.492 79.0524 100.296L69.9217 100.114C69.8501 103.713 69.6183 108.097 69.6094 111.869C69.6003 115.769 69.8046 119.819 70.7336 123.487C71.6745 127.202 73.4395 130.839 76.772 133.498C80.1134 136.164 84.4728 137.401 89.734 137.401V128.269ZM76.9485 102.338H80.5749V93.2051H76.9485V102.338ZM45.1691 97.5352C47.3599 95.9773 49.421 94.4206 51.3656 92.9492C53.3281 91.4643 55.157 90.0779 56.9701 88.7876C60.5926 86.2096 63.9416 84.1714 67.5326 82.8387C74.424 80.2809 83.1195 79.9877 97.5103 85.8765L100.969 77.4242C85.1646 70.9571 74.0159 70.6911 64.3548 74.2768C59.6695 76.0158 55.5652 78.5784 51.6749 81.3469C49.7316 82.7299 47.7892 84.2031 45.8552 85.6665C43.9034 87.1433 41.9428 88.6233 39.8766 90.0926L45.1691 97.5352ZM105.303 83.53C105.164 80.8168 103.455 78.4416 100.969 77.4242L97.5103 85.8765C96.7501 85.5654 96.2266 84.8486 96.1829 83.9982L105.303 83.53ZM36.8176 125.534C38.3358 122.985 38.2892 119.483 36.0333 116.981L29.2515 123.098C28.561 122.332 28.6493 121.401 28.9714 120.861L36.8176 125.534ZM67.1067 140.609C63.1847 138.481 59.0717 140.541 57.213 143.096L64.5984 148.468C64.4799 148.631 64.3294 148.744 64.1109 148.813C63.8666 148.889 63.3365 148.953 62.7523 148.636L67.1067 140.609ZM108.61 153.292C107.538 151.373 105.595 149.985 103.293 149.705L102.19 158.771C101.478 158.684 100.927 158.265 100.637 157.745L108.61 153.292ZM135.116 141.151C132.579 143.265 132.135 146.522 132.927 149.011L141.629 146.241C141.747 146.611 141.79 147.477 140.962 148.167L135.116 141.151ZM79.0524 100.296C79.0307 101.386 78.1411 102.338 76.9485 102.338V93.2051C73.0658 93.2051 69.997 96.3352 69.9217 100.114L79.0524 100.296ZM148.265 137.587C147.013 136.889 145.51 136.438 143.965 136.39C142.428 136.341 140.466 136.693 138.797 138.084L144.644 145.099C144.386 145.314 144.135 145.422 143.96 145.472C143.794 145.52 143.693 145.518 143.678 145.518C143.662 145.517 143.683 145.517 143.73 145.53C143.751 145.536 143.771 145.543 143.788 145.55C143.796 145.553 143.803 145.556 143.808 145.559C143.81 145.56 143.812 145.561 143.813 145.562C143.815 145.562 143.815 145.563 143.815 145.563L148.265 137.587ZM154.413 80.3276C152.419 79.9711 150.359 80.4476 148.757 81.6363C147.093 82.872 145.871 84.9538 146.034 87.4696L155.148 86.8775C155.209 87.8172 154.719 88.5846 154.201 88.9694C153.746 89.3072 153.246 89.3962 152.806 89.3176L154.413 80.3276Z"
    fill="currentColor" />
  <circle cx=" 154.271" cy="61.2973" r="4.87066" fill="currentColor" />
</svg>